<mxfile host="app.diagrams.net" agent="Mozilla/5.0 (Windows NT 10.0; Win64; x64) AppleWebKit/537.36 (KHTML, like Gecko) Chrome/130.0.0.0 Safari/537.36" version="25.0.3">
  <diagram id="C5RBs43oDa-KdzZeNtuy" name="Page-1">
    <mxGraphModel dx="408" dy="500" grid="1" gridSize="10" guides="1" tooltips="1" connect="1" arrows="1" fold="1" page="1" pageScale="1" pageWidth="827" pageHeight="1169" math="0" shadow="0">
      <root>
        <mxCell id="WIyWlLk6GJQsqaUBKTNV-0" />
        <mxCell id="WIyWlLk6GJQsqaUBKTNV-1" parent="WIyWlLk6GJQsqaUBKTNV-0" />
        <mxCell id="IbFbvwWKUAkivV4Eq4Z5-5" value="" style="edgeStyle=none;curved=1;rounded=0;orthogonalLoop=1;jettySize=auto;html=1;fontSize=12;startSize=8;endSize=8;" edge="1" parent="WIyWlLk6GJQsqaUBKTNV-1" source="IbFbvwWKUAkivV4Eq4Z5-0" target="IbFbvwWKUAkivV4Eq4Z5-1">
          <mxGeometry relative="1" as="geometry" />
        </mxCell>
        <mxCell id="IbFbvwWKUAkivV4Eq4Z5-0" value="Inicio" style="ellipse;whiteSpace=wrap;html=1;aspect=fixed;" vertex="1" parent="WIyWlLk6GJQsqaUBKTNV-1">
          <mxGeometry x="260" y="50" width="80" height="80" as="geometry" />
        </mxCell>
        <mxCell id="IbFbvwWKUAkivV4Eq4Z5-6" value="" style="edgeStyle=none;curved=1;rounded=0;orthogonalLoop=1;jettySize=auto;html=1;fontSize=12;startSize=8;endSize=8;" edge="1" parent="WIyWlLk6GJQsqaUBKTNV-1" source="IbFbvwWKUAkivV4Eq4Z5-1" target="IbFbvwWKUAkivV4Eq4Z5-2">
          <mxGeometry relative="1" as="geometry" />
        </mxCell>
        <mxCell id="IbFbvwWKUAkivV4Eq4Z5-1" value="Mostrar mensaje: &quot; Por favor, ingrese una palabra&quot;" style="shape=parallelogram;perimeter=parallelogramPerimeter;whiteSpace=wrap;html=1;fixedSize=1;" vertex="1" parent="WIyWlLk6GJQsqaUBKTNV-1">
          <mxGeometry x="205" y="180" width="190" height="90" as="geometry" />
        </mxCell>
        <mxCell id="IbFbvwWKUAkivV4Eq4Z5-7" value="" style="edgeStyle=none;curved=1;rounded=0;orthogonalLoop=1;jettySize=auto;html=1;fontSize=12;startSize=8;endSize=8;" edge="1" parent="WIyWlLk6GJQsqaUBKTNV-1" source="IbFbvwWKUAkivV4Eq4Z5-2" target="IbFbvwWKUAkivV4Eq4Z5-3">
          <mxGeometry relative="1" as="geometry" />
        </mxCell>
        <mxCell id="IbFbvwWKUAkivV4Eq4Z5-2" value="Definir la variable cantidad_letras y asignarle a la Longitud de palabra_ingresada&lt;div&gt;&lt;br&gt;&lt;/div&gt;" style="rounded=1;whiteSpace=wrap;html=1;" vertex="1" parent="WIyWlLk6GJQsqaUBKTNV-1">
          <mxGeometry x="220" y="310" width="160" height="80" as="geometry" />
        </mxCell>
        <mxCell id="IbFbvwWKUAkivV4Eq4Z5-8" value="" style="edgeStyle=none;curved=1;rounded=0;orthogonalLoop=1;jettySize=auto;html=1;fontSize=12;startSize=8;endSize=8;" edge="1" parent="WIyWlLk6GJQsqaUBKTNV-1" source="IbFbvwWKUAkivV4Eq4Z5-3" target="IbFbvwWKUAkivV4Eq4Z5-4">
          <mxGeometry relative="1" as="geometry" />
        </mxCell>
        <mxCell id="IbFbvwWKUAkivV4Eq4Z5-3" value="Mostrar mensaje: &quot;&lt;span style=&quot;color: rgb(26, 26, 26); background-color: transparent;&quot;&gt;&quot;La pabraba ingresada tiene&quot;, cantidad_letras, &quot;letras&quot;&lt;/span&gt;" style="shape=parallelogram;perimeter=parallelogramPerimeter;whiteSpace=wrap;html=1;fixedSize=1;" vertex="1" parent="WIyWlLk6GJQsqaUBKTNV-1">
          <mxGeometry x="220" y="440" width="160" height="90" as="geometry" />
        </mxCell>
        <mxCell id="IbFbvwWKUAkivV4Eq4Z5-4" value="Fin" style="ellipse;whiteSpace=wrap;html=1;aspect=fixed;" vertex="1" parent="WIyWlLk6GJQsqaUBKTNV-1">
          <mxGeometry x="270" y="570" width="80" height="80" as="geometry" />
        </mxCell>
      </root>
    </mxGraphModel>
  </diagram>
</mxfile>
